<?xml version="1.0" encoding="UTF-8"?>
<svg id="Layer_1" data-name="Layer 1" xmlns="http://www.w3.org/2000/svg" viewBox="0 0 722.75 783.45">
  <defs>
    <style>
      .cls-1 {
        fill: #fff;
        stroke-width: 0px;
      }
    </style>
  </defs>
  <path class="cls-1" d="M319.66,662.91c-7.41,0-14.84.37-22.22-.08-13.58-.82-22.31-10.39-20.76-23.95,1.8-15.75,4.84-31.36,7.43-47.02,7.98-48.28,15.99-96.55,24.01-144.82,8.91-53.65,17.83-107.3,26.76-160.95,8.01-48.08,16.04-96.15,24.07-144.23,2.26-13.55,9.66-20.69,23.2-21.14,13.94-.47,27.91-.48,41.85,0,15.54.54,24.72,11.06,22.4,26.46-4.64,30.76-10.03,61.41-15.14,92.1-8.93,53.65-17.87,107.29-26.84,160.93-8.54,51.04-17.14,102.08-25.7,153.12-4.96,29.59-9.92,59.18-14.81,88.78-2.23,13.48-9.6,20.29-23.3,20.84-6.96.28-13.95.05-20.92.05,0-.03,0-.06,0-.09Z"/>
  <path class="cls-1" d="M157.67,393.68c2.59,1.56,5.23,2.54,7.04,4.34,26.41,26.27,52.72,52.64,79.03,79,13.1,13.13,13.03,24.54-.2,37.78-9.08,9.09-18.12,18.23-27.28,27.25-11.03,10.86-23.51,10.88-34.45-.03-42.73-42.6-85.42-85.23-128.08-127.91-13.48-13.48-13.58-30.53-.23-43.92,42.78-42.86,85.61-85.67,128.46-128.45,10.62-10.6,23.32-10.65,34.02-.16,9.8,9.61,19.46,19.35,29.11,29.11,11.18,11.31,11.25,23.8.08,35.01-26.91,27-53.9,53.91-80.85,80.87-1.66,1.66-3.21,3.42-6.65,7.1Z"/>
  <path class="cls-1" d="M564.12,392.03c-2.16-2.26-3.88-4.15-5.69-5.95-26.51-26.5-53.05-52.97-79.56-79.47-12.5-12.49-12.47-24.26.08-36.85,9.23-9.26,18.44-18.55,27.75-27.73,11.03-10.87,23.54-10.93,34.47,0,42.7,42.67,85.36,85.38,127.97,128.15,13.48,13.53,13.4,30.27-.17,43.87-42.49,42.58-85.03,85.09-127.61,127.58-11.31,11.29-23.49,11.19-34.88-.09-9.14-9.05-18.22-18.15-27.31-27.24-12.67-12.66-12.75-24.24-.22-36.79,26.49-26.52,53.01-53.01,79.5-79.53,1.8-1.81,3.52-3.7,5.67-5.96Z"/>
</svg>