<?xml version="1.0" encoding="UTF-8"?>
<svg id="Layer_1" data-name="Layer 1" xmlns="http://www.w3.org/2000/svg" viewBox="0 0 722.75 783.45">
  <defs>
    <style>
      .cls-1 {
        stroke-width: 0px;
      }
    </style>
  </defs>
  <path class="cls-1" d="M457.77,620c16.71,14.47,28.45,31.99,33.26,53.84,1.62,7.38,2.44,14.81,1.97,22.34-.33,5.28-2.94,9.41-6.82,12.93-1.19,1.08-3.99,1.05-3.16,3.84h-243.27c.11-.37.4-1,.31-1.07-14.32-9.64-11.02-23.53-8.39-36.82,4.01-20.31,14.05-37.39,29.51-51.22,1.53-1.37,3.36-2.54,3.83-4.79,1.86.58,3.15-.51,4.53-1.47,17.64-12.35,37.31-17.77,58.75-17.45,11.01.17,22.03-.15,33.05-.25,8.93.05,17.86.1,26.79.14,10.57.04,21.11-.21,31.58,2.17,14.04,3.19,26.34,9.83,38.08,17.81Z"/>
  <path class="cls-1" d="M682.39,172.13c-.42-.5-.96-.84-1.35-.09-5.07,9.74-13.59,11.67-23.74,11.5-21.93-.37-43.87-.09-65.8-.12-14.68-.02-21.91-7.27-21.98-21.92-.02-5.23-.05-10.45-.07-15.68,0-12.57,0-25.14,0-37.72.02-1.88.15-3.76.05-5.64-.67-12.23-.72-24.2,11.74-31.52-.15-.15-.29-.3-.44-.45,30.1,0,60.19,0,90.29,0,3.76,3.76,7.52,7.53,11.29,11.29v90.35ZM644.85,127.06c0-4.38-.18-8.78.05-13.15.23-4.23-1.24-6.05-5.7-5.92-8.75.24-17.52.21-26.28,0-4.22-.1-6.04,1.25-5.92,5.71.24,8.76.21,17.54,0,26.3-.1,4.23,1.25,6.05,5.71,5.92,8.75-.24,17.52-.21,26.28,0,4.22.1,6.17-1.25,5.9-5.72-.26-4.37-.06-8.76-.06-13.15Z"/>
  <path class="cls-1" d="M153.46,145.84c-.05,6.04-.04,12.08-.18,18.12-.27,11.44-7.89,19.41-19.21,19.49-24.78.17-49.56.07-74.35.05-7.22,0-12.77-3.12-16.74-9.16-.61-.94-.52-2.98-2.63-2.2v-90.35c3.76-3.76,7.52-7.53,11.29-11.29h90.29c-1.2,1.51.51,1.69,1.11,2.03,7.54,4.25,10.52,10.84,10.31,19.28-.14,5.42.07,10.85.12,16.28,0,12.59,0,25.18,0,37.77ZM97.19,108.95c0-.17,0-.34,0-.51-5.01,0-10.02.14-15.02-.05-2.98-.11-3.99.92-3.94,3.92.15,9.81.11,19.63.02,29.44-.02,2.51.53,3.81,3.43,3.78,10.01-.13,20.03-.12,30.04,0,2.7.03,3.7-.87,3.61-3.6-.16-5.21.12-10.44-.08-15.66-.23-5.77,2.59-13.69-1.16-16.71-3.52-2.83-11.1-.61-16.9-.61Z"/>
  <path class="cls-1" d="M412.55,151.91c-8.78,15.33-21.11,26.16-38.66,30.22-23.59,5.47-48.94-5.63-61.18-26.64-.72-1.24-1.68-2.33-2.53-3.49-5.29-14.32-6.46-28.89-2.58-43.75,7.85-17.59,19.89-30.56,39.08-35.76.63-.17,2.31-.57.9-1.99,9.61,0,19.23,0,28.84,0-.17.12-.35.23-.5.37-.13.11-.35.32-.32.39.46,1.03,1.34,1.43,2.39,1.75,18.25,5.57,29.85,18.16,37.14,35.29,4.32,14.84,3.36,29.37-2.58,43.61ZM361.38,145.62c11,.15,18.88-7.64,18.88-18.66s-7.88-18.8-18.88-18.66c-7.96.98-14.22,4.49-17.17,12.3-4.47,11.85,2.71,22.18,17.17,25.01Z"/>
  <path class="cls-1" d="M361.32,599.88c-11.02.1-22.03.42-33.05.25-21.44-.32-41.11,5.09-58.75,17.45-1.38.96-2.67,2.05-4.53,1.47-3.85-32.56-14.57-62.81-30.89-91.12-9.32-16.16-20.63-30.83-33.35-44.48-11.06-11.86-11.35-18.46-2.24-32.13,46.62-69.96,93.24-139.93,139.87-209.88,1.25-1.87,2.73-3.59,4.1-5.38.03,55.56-.13,111.12.3,166.67.06,7.85-1.99,11.88-9.13,15.63-29.79,15.65-37.64,56.67-16.75,83.13,11.42,14.46,26.62,20.84,44.45,22.22-.01,25.39-.03,50.77-.04,76.16Z"/>
  <path class="cls-1" d="M361.32,599.88c.01-25.39.03-50.77.04-76.16,12.7-.21,24.32-3.85,34.32-11.72,33.71-26.54,28.59-76.02-10.04-96.01-4.13-2.14-5.46-4.32-5.44-8.91.18-54.75.11-109.51.15-164.26,0-2.23-.67-4.61.82-6.68,47.8,71.79,95.61,143.58,143.41,215.38,8.97,13.47,8.58,20.46-2.39,32.08-33.18,35.15-53.63,76.73-62.79,124.03-.79,4.08-1.1,8.25-1.63,12.39-11.73-7.98-24.03-14.62-38.08-17.81-10.47-2.38-21.01-2.13-31.58-2.17-8.93-.04-17.86-.09-26.79-.14Z"/>
  <path class="cls-1" d="M153.46,108.08c51.38.06,102.76.11,154.14.17-3.87,14.86-2.71,29.43,2.58,43.75-21.29,6.19-41.76,14.21-60.42,26.44-47.4,31.06-77.54,74.16-90.22,129.43-2.24,9.77-3.85,19.64-4.14,29.69-12.45-4.27-25.03-3.94-37.69-1.07,3.6-55.21,23.85-103.57,59.96-145.33,14.92-17.25,32.16-31.93,53.07-45.31-27.05,0-52.16,0-77.27,0,0-12.59,0-25.18,0-37.77Z"/>
  <path class="cls-1" d="M415.14,108.3c51.44-.07,102.89-.13,154.33-.2,0,12.57,0,25.15,0,37.72-25.17,0-50.34,0-77.01,0,5.63,4.03,10.15,7.13,14.53,10.42,49.73,37.43,80.9,86.71,93.78,147.57,2.29,10.81,3.95,21.75,4.14,32.84-12.35-3.56-24.68-2.75-37,.15-2.52-23.55-7.45-46.53-17.38-68.16-25.24-55-66.42-92.5-123.68-112.2-4.72-1.63-9.53-3.03-14.29-4.53,5.94-14.24,6.9-28.77,2.58-43.61Z"/>
  <path class="cls-1" d="M567.91,336.81c12.32-2.9,24.65-3.71,37-.15,18.42,7.55,31.23,20.17,36.68,39.79,6.12,22.03-3.57,47.82-23.19,60.9-19.69,13.11-47.19,12.32-65.05-1.89-33.46-26.61-29.08-75.19,8.58-95.28,2.02-1.08,3.99-2.25,5.98-3.37ZM605.94,390.47c0-10.29-8.27-18.7-18.54-18.86-10.54-.16-19.16,8.32-19.16,18.86,0,10.29,8.27,18.7,18.54,18.86,10.55.16,19.16-8.32,19.16-18.86Z"/>
  <path class="cls-1" d="M117.7,336.48c12.65-2.86,25.24-3.2,37.69,1.07,42.48,17.9,49.69,70.44,13.51,98.47-17.3,13.41-41.84,14.44-62.48,2.64-17.93-10.25-29.34-33.15-26.86-53.62,2.9-23.95,16.55-39.37,38.16-48.56ZM154.1,390.43c-.02-9.86-8.63-18.44-18.48-18.42-9.85.02-18.43,8.64-18.41,18.49.02,9.86,8.63,18.44,18.48,18.42,9.86-.02,18.43-8.64,18.41-18.49Z"/>
</svg>