<?xml version="1.0" encoding="UTF-8"?>
<svg id="Layer_1" data-name="Layer 1" xmlns="http://www.w3.org/2000/svg" viewBox="0 0 722.75 783.45">
  <defs>
    <style>
      .cls-1 {
        fill: #fff;
        stroke-width: 0px;
      }
    </style>
  </defs>
  <path class="cls-1" d="M331.85,342.31c7.51-23.56,14.79-46.48,22.13-69.37,15.24-47.56,29.9-95.31,45.98-142.58,10.2-29.96,42.66-44.46,71.97-34.03,29.09,10.36,44.18,42.23,34.5,72.14-13.16,40.62-26.05,81.32-39.04,121.99-.7,2.2-1.18,4.47-1.91,7.26,5.33.72,10.35,1.21,15.3,2.1,16.23,2.92,28.34,11.86,37.45,25.44,1.35,2.02,4.77,4.53,6.56,4.09,25.12-6.22,50.34,2.02,65.3,29.26,15.39-4.32,30.49-3.18,44.45,5.54,21.93,13.7,30.24,38.44,21.89,64.53-13.74,42.88-26.53,86.08-41.4,128.56-23.83,68.03-71.77,110.68-141.59,128.01-88.93,22.07-186.23-27.7-221.73-112.22-20.9-49.76-20.85-99.58-2.97-150.01,5.53-15.6,9.78-31.66,15.32-47.26,9.73-27.35,34.02-40.43,62.26-34.16,1.48.33,3.02.4,5.54.71ZM430.34,655.12c66.32-.19,125.61-39.91,148.69-101.96,13.6-36.57,24.29-74.23,36.28-111.4,2.7-8.37,5.45-16.73,8.1-25.11,3.41-10.8-.45-20.06-9.87-23.9-9.36-3.81-18.48.2-23.53,10.33-.92,1.85-1.65,3.87-2.9,5.48-4.49,5.75-10.34,8.56-17.69,6.92-7.54-1.68-13.4-7.74-13.57-15.03-.1-4.25,1.2-8.62,2.39-12.79,3.13-10.98-1.01-20.18-11.13-24.06-9.55-3.66-18.76.49-23.57,10.61-5.17,10.9-13.37,15.07-22.78,11.57-9.67-3.6-13.13-11.61-10.2-23.6,3.17-12.98-2.79-24.39-14.53-27.81-11.37-3.3-22.77,2.83-27.28,14.68-.28.72-.4,1.5-.66,2.24-3.55,9.93-12.13,15.21-20.9,12.89-10.11-2.67-15.56-11.41-12.64-22.27,3.49-12.98,7.98-25.69,12.06-38.51,15.61-49.06,31.26-98.1,46.8-147.18,3.16-9.97-1.02-20.06-10-25.27-12.47-7.23-26.82-1.2-31.81,14.15-13.6,41.83-26.79,83.79-40.17,125.68-10.47,32.78-20.88,65.57-31.53,98.29-3.66,11.25-11.8,15.34-23.05,12.2-3.99-1.11-7.95-2.32-11.87-3.66-17.13-5.84-24.08-2.47-29.72,14.94-5.83,17.96-11.3,36.04-17.11,54.01-33.15,102.63,44.34,208.87,152.18,208.56Z"/>
  <path class="cls-1" d="M290.97,128.09c-2.83-4.62-5.72-8.01-7.14-11.93-2.76-7.65.26-15.71,6.58-19.86,6.42-4.22,15.21-4.17,20.96,1.23,12.64,11.88,25.05,24.02,37.14,36.45,6.05,6.22,6.45,14.96.83,22.07-10.27,13-20.94,25.7-31.91,38.11-6.19,7-17.11,7.15-23.87,1.25-6.72-5.86-7.8-16.41-2.39-23.93,1.76-2.44,3.67-4.78,6.46-8.4-4.08,0-6.79,0-9.51,0-68.14,0-136.28,0-204.42-.01-10.8,0-16.69-3.66-19.56-11.9-3.56-10.23,2.78-21.01,13.52-22.7,3.05-.48,6.2-.38,9.3-.38,64.77-.02,129.55-.01,194.32-.01,3.02,0,6.03,0,9.69,0Z"/>
</svg>