<?xml version="1.0" encoding="UTF-8"?>
<svg id="Layer_1" data-name="Layer 1" xmlns="http://www.w3.org/2000/svg" viewBox="0 0 722.75 783.45">
  <defs>
    <style>
      .cls-1, .cls-2 {
        stroke-width: 0px;
      }

      .cls-2 {
        fill: #fff;
      }
    </style>
  </defs>
  <path class="cls-1" d="M62.15,416.73c1.93,0,1.93-3,0-3s-1.93,3,0,3h0Z"/>
  <g>
    <path class="cls-2" d="M396.45,341.6c28.24-6.27,52.53,6.8,62.26,34.16,5.55,15.6,9.79,31.65,15.32,47.26,17.87,50.43,17.93,100.25-2.97,150.01-35.5,84.52-132.8,134.3-221.73,112.22-69.82-17.33-117.77-59.98-141.59-128.01-14.88-42.48-27.67-85.68-41.4-128.56-8.36-26.09-.04-50.83,21.89-64.53,13.96-8.72,29.05-9.86,44.45-5.54,14.95-27.24,40.18-35.48,65.3-29.26,1.79.44,5.21-2.07,6.56-4.09,9.1-13.58,21.22-22.52,37.45-25.44,4.95-.89,9.97-1.38,15.3-2.1-.73-2.79-1.21-5.06-1.91-7.26-12.98-40.67-25.88-81.37-39.04-121.99-9.69-29.91,5.41-61.78,34.5-72.14,29.3-10.43,61.77,4.06,71.97,34.03,16.08,47.27,30.74,95.02,45.98,142.58,7.34,22.9,14.62,45.81,22.13,69.37,2.53-.32,4.07-.39,5.54-.71ZM444.59,446.56c-5.81-17.97-11.28-36.05-17.11-54.01-5.64-17.41-12.59-20.78-29.72-14.94-3.92,1.34-7.88,2.55-11.87,3.66-11.25,3.14-19.39-.95-23.05-12.2-10.64-32.72-21.06-65.51-31.53-98.29-13.38-41.9-26.57-83.86-40.17-125.68-4.99-15.35-19.33-21.38-31.81-14.15-8.99,5.21-13.16,15.29-10,25.27,15.54,49.08,31.2,98.12,46.8,147.18,4.08,12.82,8.58,25.53,12.06,38.51,2.92,10.86-2.54,19.59-12.64,22.27-8.77,2.32-17.35-2.97-20.9-12.89-.26-.73-.38-1.51-.66-2.24-4.51-11.85-15.91-17.98-27.28-14.68-11.74,3.41-17.7,14.83-14.53,27.81,2.93,11.99-.53,20-10.2,23.6-9.4,3.5-17.6-.67-22.78-11.57-4.8-10.12-14.02-14.27-23.57-10.61-10.12,3.88-14.26,13.08-11.13,24.06,1.19,4.17,2.49,8.54,2.39,12.79-.18,7.29-6.03,13.35-13.57,15.03-7.36,1.64-13.2-1.17-17.69-6.92-1.25-1.6-1.98-3.62-2.9-5.48-5.05-10.14-14.17-14.15-23.53-10.33-9.42,3.84-13.28,13.1-9.87,23.9,2.65,8.39,5.4,16.74,8.1,25.11,12,37.17,22.68,74.83,36.28,111.4,23.08,62.05,82.37,101.77,148.69,101.96,107.83.31,185.33-105.93,152.18-208.56Z"/>
    <path class="cls-2" d="M431.78,128.09c2.83-4.62,5.72-8.01,7.14-11.93,2.76-7.65-.26-15.71-6.58-19.86-6.42-4.22-15.21-4.17-20.96,1.23-12.64,11.88-25.05,24.02-37.14,36.45-6.05,6.22-6.45,14.96-.83,22.07,10.27,13,20.94,25.7,31.91,38.11,6.19,7,17.11,7.15,23.87,1.25,6.72-5.86,7.8-16.41,2.39-23.93-1.76-2.44-3.67-4.78-6.46-8.4,4.08,0,6.79,0,9.51,0,68.14,0,136.28,0,204.42-.01,10.8,0,16.69-3.66,19.56-11.9,3.56-10.23-2.78-21.01-13.52-22.7-3.05-.48-6.2-.38-9.3-.38-64.77-.02-129.55-.01-194.32-.01-3.02,0-6.03,0-9.69,0Z"/>
  </g>
</svg>